<svg xmlns="http://www.w3.org/2000/svg" xmlns:xlink="http://www.w3.org/1999/xlink" version="1.1" viewBox="244.7241973876953 221.5972137451172 187.7642059326172 85.63179016113281">
<g enable-background="new">
<g id="Layer-1" data-name="Layer">
<clipPath id="cp0">
<path transform="matrix(1,0,0,-1,0,841.89)" d="M 0 841.89 L 595.276 841.89 L 595.276 0 L 0 0 Z "></path>
</clipPath>
<g clip-path="url(#cp0)">
<path transform="matrix(1,0,0,-1,289.5439,228.0716)" d="M 0 0 L -.275 -2.596 L -6.955 -2.596 L -6.955 -2.391 L -1.723 5.256 L -3.639 5.256 C -3.861 5.256 -4.048 5.252 -4.198 5.244 C -4.349 5.236 -4.486 5.221 -4.611 5.197 C -4.869 5.146 -5.159 4.934 -5.481 4.559 C -5.804 4.184 -6.047 3.787 -6.211 3.369 L -6.621 3.369 L -6.369 5.719 L -.141 5.719 L -.141 5.514 L -5.373 -2.133 L -3.398 -2.133 C -3.066 -2.133 -2.713 -2.109 -2.338 -2.063 C -1.963 -2.016 -1.719 -1.936 -1.605 -1.822 C -1.352 -1.58 -1.115 -1.283 -.896 -.932 C -.678 -.58 -.516 -.27 -.41 0 Z " fill="#231f20"></path>
<path transform="matrix(1,0,0,-1,293.499,227.46814)" d="M 0 0 C -.332 -.098 -.623 -.194 -.873 -.288 C -1.123 -.382 -1.355 -.499 -1.57 -.64 C -1.766 -.773 -1.92 -.931 -2.033 -1.113 C -2.146 -1.295 -2.203 -1.511 -2.203 -1.762 C -2.203 -2.086 -2.118 -2.325 -1.948 -2.478 C -1.778 -2.631 -1.563 -2.707 -1.301 -2.707 C -1.023 -2.707 -.779 -2.64 -.568 -2.504 C -.357 -2.369 -.18 -2.21 -.035 -2.026 Z M 2.045 -3.094 C 1.861 -3.16 1.7 -3.214 1.562 -3.255 C 1.423 -3.296 1.266 -3.316 1.09 -3.316 C .785 -3.316 .542 -3.245 .36 -3.103 C .179 -2.96 .063 -2.752 .012 -2.479 L -.023 -2.479 C -.277 -2.76 -.55 -2.975 -.841 -3.123 C -1.132 -3.271 -1.482 -3.346 -1.893 -3.346 C -2.326 -3.346 -2.683 -3.213 -2.962 -2.947 C -3.241 -2.682 -3.381 -2.334 -3.381 -1.904 C -3.381 -1.682 -3.35 -1.482 -3.287 -1.307 C -3.225 -1.131 -3.131 -.973 -3.006 -.832 C -2.908 -.715 -2.779 -.61 -2.619 -.519 C -2.459 -.427 -2.309 -.354 -2.168 -.299 C -1.992 -.232 -1.636 -.109 -1.099 .07 C -.562 .25 -.199 .391 -.012 .492 L -.012 1.072 C -.012 1.123 -.022 1.221 -.044 1.365 C -.065 1.51 -.111 1.646 -.182 1.775 C -.26 1.92 -.37 2.046 -.513 2.153 C -.655 2.261 -.857 2.314 -1.119 2.314 C -1.299 2.314 -1.466 2.284 -1.62 2.224 C -1.774 2.163 -1.883 2.1 -1.945 2.033 C -1.945 1.955 -1.927 1.84 -1.89 1.688 C -1.853 1.535 -1.834 1.395 -1.834 1.266 C -1.834 1.129 -1.896 1.004 -2.019 .891 C -2.142 .777 -2.313 .721 -2.531 .721 C -2.727 .721 -2.87 .79 -2.962 .929 C -3.054 1.067 -3.1 1.223 -3.1 1.395 C -3.1 1.574 -3.036 1.746 -2.909 1.91 C -2.782 2.074 -2.617 2.221 -2.414 2.35 C -2.238 2.459 -2.025 2.552 -1.775 2.628 C -1.525 2.704 -1.281 2.742 -1.043 2.742 C -.715 2.742 -.429 2.72 -.185 2.675 C .06 2.63 .281 2.533 .48 2.385 C .68 2.24 .831 2.044 .935 1.796 C 1.038 1.548 1.09 1.229 1.09 .838 C 1.09 .279 1.084 -.216 1.072 -.647 C 1.061 -1.079 1.055 -1.551 1.055 -2.063 C 1.055 -2.215 1.081 -2.336 1.134 -2.426 C 1.187 -2.516 1.268 -2.592 1.377 -2.654 C 1.436 -2.689 1.528 -2.709 1.655 -2.713 C 1.782 -2.717 1.912 -2.719 2.045 -2.719 Z " fill="#231f20"></path>
<path transform="matrix(1,0,0,-1,301.585,225.24744)" d="M 0 0 C -.176 -.031 -.343 -.095 -.501 -.19 C -.659 -.286 -.795 -.455 -.908 -.697 C -1.139 -1.221 -1.377 -1.767 -1.623 -2.335 C -1.869 -2.903 -2.125 -3.5 -2.391 -4.125 C -2.469 -4.305 -2.552 -4.518 -2.64 -4.764 C -2.728 -5.01 -2.809 -5.246 -2.883 -5.473 L -3.34 -5.473 C -3.711 -4.555 -4.053 -3.718 -4.365 -2.962 C -4.678 -2.206 -5.002 -1.432 -5.338 -.639 C -5.416 -.459 -5.542 -.319 -5.716 -.22 C -5.89 -.12 -6.064 -.057 -6.24 -.029 L -6.24 .357 L -3.566 .357 L -3.566 -.053 C -3.684 -.057 -3.83 -.081 -4.006 -.126 C -4.182 -.171 -4.27 -.232 -4.27 -.31 C -4.27 -.322 -4.26 -.352 -4.24 -.401 C -4.221 -.45 -4.201 -.505 -4.182 -.567 C -4.022 -.966 -3.796 -1.521 -3.504 -2.236 C -3.212 -2.95 -2.975 -3.525 -2.791 -3.962 C -2.65 -3.627 -2.474 -3.209 -2.261 -2.71 C -2.048 -2.21 -1.818 -1.652 -1.572 -1.036 C -1.533 -.931 -1.496 -.832 -1.461 -.74 C -1.426 -.648 -1.408 -.556 -1.408 -.462 C -1.408 -.396 -1.44 -.336 -1.505 -.284 C -1.569 -.231 -1.646 -.186 -1.736 -.146 C -1.826 -.107 -1.914 -.078 -2 -.059 C -2.086 -.039 -2.156 -.025 -2.211 -.018 L -2.211 .357 L 0 .357 Z " fill="#231f20"></path>
<path transform="matrix(1,0,0,-1,306.0205,227.73181)" d="M 0 0 C 0 .293 -.029 .603 -.088 .929 C -.146 1.255 -.234 1.531 -.353 1.758 C -.478 2 -.642 2.194 -.846 2.341 C -1.049 2.487 -1.297 2.561 -1.591 2.561 C -1.893 2.561 -2.149 2.486 -2.362 2.338 C -2.576 2.189 -2.749 1.986 -2.882 1.729 C -3.008 1.49 -3.096 1.219 -3.146 .914 C -3.197 .609 -3.223 .314 -3.223 .029 C -3.223 -.346 -3.192 -.692 -3.132 -1.011 C -3.071 -1.329 -2.975 -1.613 -2.841 -1.863 C -2.708 -2.113 -2.541 -2.31 -2.339 -2.452 C -2.138 -2.595 -1.889 -2.666 -1.591 -2.666 C -1.102 -2.666 -.714 -2.43 -.429 -1.957 C -.143 -1.484 0 -.832 0 0 M 1.213 .012 C 1.213 -.395 1.148 -.794 1.02 -1.187 C .891 -1.579 .706 -1.912 .468 -2.186 C .198 -2.498 -.114 -2.73 -.471 -2.883 C -.826 -3.035 -1.226 -3.111 -1.667 -3.111 C -2.035 -3.111 -2.385 -3.042 -2.717 -2.903 C -3.05 -2.765 -3.345 -2.563 -3.603 -2.297 C -3.856 -2.035 -4.06 -1.716 -4.21 -1.339 C -4.36 -.962 -4.436 -.539 -4.436 -.07 C -4.436 .832 -4.173 1.57 -3.646 2.145 C -3.121 2.719 -2.432 3.006 -1.579 3.006 C -.771 3.006 -.102 2.733 .424 2.188 C .95 1.644 1.213 .918 1.213 .012 " fill="#231f20"></path>
<path transform="matrix(1,0,0,-1,312.501,229.54822)" d="M 0 0 L 0 3.381 C -.031 3.482 -.082 3.592 -.152 3.709 C -.223 3.826 -.31 3.934 -.415 4.031 C -.528 4.129 -.661 4.21 -.813 4.274 C -.965 4.339 -1.143 4.371 -1.345 4.371 C -1.579 4.371 -1.795 4.311 -1.991 4.189 C -2.188 4.068 -2.362 3.895 -2.515 3.668 C -2.659 3.449 -2.772 3.171 -2.856 2.833 C -2.94 2.495 -2.982 2.121 -2.982 1.711 C -2.982 1.383 -2.951 1.085 -2.889 .817 C -2.826 .55 -2.722 .301 -2.573 .07 C -2.437 -.148 -2.262 -.324 -2.05 -.457 C -1.837 -.59 -1.585 -.656 -1.292 -.656 C -.979 -.656 -.723 -.588 -.518 -.451 C -.313 -.314 -.141 -.164 0 0 M 2.121 -1.014 L .1 -1.143 L .012 -1.061 L .012 -.521 L -.035 -.51 C -.238 -.736 -.488 -.922 -.787 -1.066 C -1.086 -1.211 -1.393 -1.283 -1.709 -1.283 C -2.036 -1.283 -2.354 -1.21 -2.659 -1.063 C -2.966 -.917 -3.231 -.711 -3.458 -.445 C -3.688 -.176 -3.87 .148 -4.005 .527 C -4.14 .906 -4.207 1.324 -4.207 1.781 C -4.207 2.199 -4.135 2.596 -3.99 2.971 C -3.847 3.346 -3.647 3.674 -3.394 3.955 C -3.156 4.217 -2.864 4.426 -2.519 4.582 C -2.174 4.738 -1.821 4.816 -1.463 4.816 C -1.193 4.816 -.93 4.782 -.67 4.714 C -.41 4.646 -.188 4.559 0 4.453 L 0 6.467 C 0 6.631 -.027 6.781 -.082 6.916 C -.137 7.051 -.213 7.154 -.311 7.224 C -.42 7.298 -.567 7.352 -.753 7.386 C -.938 7.419 -1.139 7.443 -1.354 7.459 L -1.354 7.822 L 1.014 7.951 L 1.102 7.863 L 1.102 .076 C 1.102 -.061 1.128 -.177 1.181 -.273 C 1.233 -.368 1.311 -.449 1.412 -.516 C 1.486 -.563 1.594 -.592 1.734 -.604 C 1.875 -.615 2.004 -.623 2.121 -.627 Z " fill="#231f20"></path>
<path transform="matrix(1,0,0,-1,322.6553,230.6673)" d="M 0 0 L -4.676 0 L -4.676 .311 L -1.4 5.303 L -2.211 5.303 C -2.552 5.303 -2.817 5.297 -3.01 5.285 C -3.201 5.273 -3.378 5.234 -3.538 5.168 C -3.647 5.125 -3.75 5.002 -3.847 4.799 C -3.942 4.596 -4.025 4.33 -4.096 4.002 L -4.453 4.002 L -4.453 5.777 L -.035 5.777 L -.035 5.537 L -3.356 .475 C -3.216 .471 -3.062 .468 -2.894 .466 C -2.726 .464 -2.544 .463 -2.349 .463 C -2.192 .463 -2.03 .465 -1.86 .469 C -1.69 .473 -1.473 .482 -1.207 .498 C -1.051 .506 -.933 .559 -.853 .656 C -.772 .754 -.711 .865 -.668 .99 C -.625 1.104 -.573 1.26 -.513 1.459 C -.452 1.658 -.398 1.852 -.352 2.039 L 0 2.039 Z " fill="#231f20"></path>
<path transform="matrix(1,0,0,-1,327.0732,227.46814)" d="M 0 0 C -.332 -.098 -.623 -.194 -.873 -.288 C -1.123 -.382 -1.355 -.499 -1.57 -.64 C -1.766 -.773 -1.92 -.931 -2.033 -1.113 C -2.146 -1.295 -2.203 -1.511 -2.203 -1.762 C -2.203 -2.086 -2.118 -2.325 -1.948 -2.478 C -1.778 -2.631 -1.563 -2.707 -1.301 -2.707 C -1.023 -2.707 -.779 -2.64 -.568 -2.504 C -.357 -2.369 -.18 -2.21 -.035 -2.026 Z M 2.045 -3.094 C 1.861 -3.16 1.7 -3.214 1.562 -3.255 C 1.423 -3.296 1.266 -3.316 1.09 -3.316 C .785 -3.316 .542 -3.245 .36 -3.103 C .179 -2.96 .063 -2.752 .012 -2.479 L -.023 -2.479 C -.277 -2.76 -.55 -2.975 -.841 -3.123 C -1.132 -3.271 -1.482 -3.346 -1.893 -3.346 C -2.326 -3.346 -2.683 -3.213 -2.962 -2.947 C -3.241 -2.682 -3.381 -2.334 -3.381 -1.904 C -3.381 -1.682 -3.35 -1.482 -3.287 -1.307 C -3.225 -1.131 -3.131 -.973 -3.006 -.832 C -2.908 -.715 -2.779 -.61 -2.619 -.519 C -2.459 -.427 -2.309 -.354 -2.168 -.299 C -1.992 -.232 -1.636 -.109 -1.099 .07 C -.563 .25 -.199 .391 -.012 .492 L -.012 1.072 C -.012 1.123 -.022 1.221 -.044 1.365 C -.065 1.51 -.111 1.646 -.182 1.775 C -.26 1.92 -.37 2.046 -.513 2.153 C -.655 2.261 -.857 2.314 -1.119 2.314 C -1.299 2.314 -1.466 2.284 -1.62 2.224 C -1.774 2.163 -1.883 2.1 -1.945 2.033 C -1.945 1.955 -1.927 1.84 -1.89 1.688 C -1.854 1.535 -1.834 1.395 -1.834 1.266 C -1.834 1.129 -1.896 1.004 -2.019 .891 C -2.142 .777 -2.313 .721 -2.531 .721 C -2.728 .721 -2.87 .79 -2.962 .929 C -3.054 1.067 -3.1 1.223 -3.1 1.395 C -3.1 1.574 -3.036 1.746 -2.909 1.91 C -2.782 2.074 -2.617 2.221 -2.414 2.35 C -2.238 2.459 -2.025 2.552 -1.775 2.628 C -1.525 2.704 -1.281 2.742 -1.043 2.742 C -.715 2.742 -.429 2.72 -.185 2.675 C .06 2.63 .281 2.533 .479 2.385 C .68 2.24 .831 2.044 .935 1.796 C 1.038 1.548 1.09 1.229 1.09 .838 C 1.09 .279 1.084 -.216 1.072 -.647 C 1.061 -1.079 1.055 -1.551 1.055 -2.063 C 1.055 -2.215 1.081 -2.336 1.134 -2.426 C 1.187 -2.516 1.268 -2.592 1.377 -2.654 C 1.436 -2.689 1.528 -2.709 1.655 -2.713 C 1.782 -2.717 1.912 -2.719 2.045 -2.719 Z " fill="#231f20"></path>
<path transform="matrix(1,0,0,-1,337.5732,225.24744)" d="M 0 0 C -.176 -.031 -.343 -.095 -.501 -.19 C -.659 -.286 -.795 -.455 -.908 -.697 C -1.139 -1.221 -1.377 -1.767 -1.623 -2.335 C -1.869 -2.903 -2.125 -3.5 -2.391 -4.125 C -2.469 -4.305 -2.552 -4.518 -2.64 -4.764 C -2.729 -5.01 -2.809 -5.246 -2.883 -5.473 L -3.34 -5.473 C -3.711 -4.555 -4.053 -3.718 -4.365 -2.962 C -4.678 -2.206 -5.002 -1.432 -5.338 -.639 C -5.416 -.459 -5.542 -.319 -5.716 -.22 C -5.89 -.12 -6.064 -.057 -6.24 -.029 L -6.24 .357 L -3.566 .357 L -3.566 -.053 C -3.684 -.057 -3.83 -.081 -4.006 -.126 C -4.182 -.171 -4.271 -.232 -4.271 -.31 C -4.271 -.322 -4.26 -.352 -4.24 -.401 C -4.221 -.45 -4.201 -.505 -4.182 -.567 C -4.022 -.966 -3.796 -1.521 -3.504 -2.236 C -3.212 -2.95 -2.975 -3.525 -2.791 -3.962 C -2.65 -3.627 -2.474 -3.209 -2.261 -2.71 C -2.048 -2.21 -1.818 -1.652 -1.572 -1.036 C -1.533 -.931 -1.496 -.832 -1.461 -.74 C -1.426 -.648 -1.408 -.556 -1.408 -.462 C -1.408 -.396 -1.44 -.336 -1.505 -.284 C -1.569 -.231 -1.646 -.186 -1.736 -.146 C -1.826 -.107 -1.914 -.078 -2 -.059 C -2.086 -.039 -2.156 -.025 -2.211 -.018 L -2.211 .357 L 0 .357 Z " fill="#231f20"></path>
<path transform="matrix(1,0,0,-1,341.0254,227.46814)" d="M 0 0 C -.332 -.098 -.623 -.194 -.873 -.288 C -1.123 -.382 -1.355 -.499 -1.57 -.64 C -1.766 -.773 -1.92 -.931 -2.033 -1.113 C -2.146 -1.295 -2.203 -1.511 -2.203 -1.762 C -2.203 -2.086 -2.118 -2.325 -1.948 -2.478 C -1.778 -2.631 -1.563 -2.707 -1.301 -2.707 C -1.023 -2.707 -.779 -2.64 -.568 -2.504 C -.357 -2.369 -.18 -2.21 -.035 -2.026 Z M 2.045 -3.094 C 1.861 -3.16 1.7 -3.214 1.562 -3.255 C 1.423 -3.296 1.266 -3.316 1.09 -3.316 C .785 -3.316 .542 -3.245 .36 -3.103 C .179 -2.96 .063 -2.752 .012 -2.479 L -.023 -2.479 C -.277 -2.76 -.55 -2.975 -.841 -3.123 C -1.132 -3.271 -1.482 -3.346 -1.893 -3.346 C -2.326 -3.346 -2.683 -3.213 -2.962 -2.947 C -3.241 -2.682 -3.381 -2.334 -3.381 -1.904 C -3.381 -1.682 -3.35 -1.482 -3.287 -1.307 C -3.225 -1.131 -3.131 -.973 -3.006 -.832 C -2.908 -.715 -2.779 -.61 -2.619 -.519 C -2.459 -.427 -2.309 -.354 -2.168 -.299 C -1.992 -.232 -1.636 -.109 -1.099 .07 C -.563 .25 -.199 .391 -.012 .492 L -.012 1.072 C -.012 1.123 -.022 1.221 -.044 1.365 C -.065 1.51 -.111 1.646 -.182 1.775 C -.26 1.92 -.37 2.046 -.513 2.153 C -.655 2.261 -.857 2.314 -1.119 2.314 C -1.299 2.314 -1.466 2.284 -1.62 2.224 C -1.774 2.163 -1.883 2.1 -1.945 2.033 C -1.945 1.955 -1.927 1.84 -1.89 1.688 C -1.854 1.535 -1.834 1.395 -1.834 1.266 C -1.834 1.129 -1.896 1.004 -2.019 .891 C -2.142 .777 -2.313 .721 -2.531 .721 C -2.727 .721 -2.87 .79 -2.962 .929 C -3.054 1.067 -3.1 1.223 -3.1 1.395 C -3.1 1.574 -3.036 1.746 -2.909 1.91 C -2.782 2.074 -2.617 2.221 -2.414 2.35 C -2.238 2.459 -2.025 2.552 -1.775 2.628 C -1.525 2.704 -1.281 2.742 -1.043 2.742 C -.715 2.742 -.429 2.72 -.185 2.675 C .06 2.63 .281 2.533 .48 2.385 C .68 2.24 .831 2.044 .935 1.796 C 1.038 1.548 1.09 1.229 1.09 .838 C 1.09 .279 1.084 -.216 1.072 -.647 C 1.061 -1.079 1.055 -1.551 1.055 -2.063 C 1.055 -2.215 1.081 -2.336 1.134 -2.426 C 1.187 -2.516 1.268 -2.592 1.377 -2.654 C 1.436 -2.689 1.528 -2.709 1.655 -2.713 C 1.782 -2.717 1.912 -2.719 2.045 -2.719 Z " fill="#231f20"></path>
<path transform="matrix(1,0,0,-1,348.0684,225.6341)" d="M 0 0 C 0 -.199 -.049 -.376 -.146 -.53 C -.244 -.685 -.395 -.762 -.598 -.762 C -.816 -.762 -.983 -.705 -1.099 -.592 C -1.214 -.479 -1.271 -.354 -1.271 -.217 C -1.271 -.131 -1.265 -.053 -1.251 .018 C -1.237 .088 -1.225 .158 -1.213 .229 C -1.396 .229 -1.611 .154 -1.857 .006 C -2.104 -.143 -2.313 -.354 -2.484 -.627 L -2.484 -3.99 C -2.484 -4.127 -2.458 -4.238 -2.405 -4.324 C -2.353 -4.41 -2.27 -4.475 -2.156 -4.518 C -2.059 -4.557 -1.933 -4.586 -1.778 -4.605 C -1.624 -4.625 -1.49 -4.639 -1.377 -4.646 L -1.377 -5.033 L -4.424 -5.033 L -4.424 -4.646 C -4.334 -4.639 -4.241 -4.631 -4.146 -4.623 C -4.05 -4.615 -3.967 -4.6 -3.896 -4.576 C -3.787 -4.541 -3.706 -4.48 -3.653 -4.392 C -3.601 -4.304 -3.574 -4.19 -3.574 -4.05 L -3.574 -.485 C -3.574 -.364 -3.603 -.246 -3.659 -.128 C -3.716 -.011 -3.795 .082 -3.896 .152 C -3.971 .199 -4.059 .233 -4.16 .255 C -4.262 .276 -4.371 .291 -4.488 .299 L -4.488 .686 L -2.566 .814 L -2.484 .732 L -2.484 -.082 L -2.455 -.082 C -2.213 .234 -1.943 .475 -1.646 .639 C -1.35 .803 -1.078 .885 -.832 .885 C -.586 .885 -.386 .805 -.231 .645 C -.077 .484 0 .27 0 0 " fill="#231f20"></path>
<path transform="matrix(1,0,0,-1,352.6152,227.83734)" d="M 0 0 C .16 -.141 .283 -.303 .369 -.486 C .455 -.67 .498 -.895 .498 -1.16 C .498 -1.695 .298 -2.133 -.104 -2.473 C -.503 -2.813 -1.021 -2.982 -1.658 -2.982 C -1.994 -2.982 -2.304 -2.922 -2.587 -2.801 C -2.87 -2.68 -3.072 -2.568 -3.193 -2.467 L -3.311 -2.848 L -3.75 -2.848 L -3.809 -.838 L -3.404 -.838 C -3.373 -.991 -3.307 -1.169 -3.205 -1.373 C -3.104 -1.577 -2.98 -1.761 -2.836 -1.926 C -2.684 -2.098 -2.501 -2.243 -2.288 -2.361 C -2.075 -2.479 -1.836 -2.537 -1.57 -2.537 C -1.195 -2.537 -.906 -2.452 -.703 -2.281 C -.5 -2.11 -.398 -1.865 -.398 -1.547 C -.398 -1.383 -.431 -1.241 -.495 -1.122 C -.561 -1.003 -.654 -.898 -.779 -.809 C -.908 -.719 -1.066 -.638 -1.254 -.565 C -1.441 -.493 -1.65 -.422 -1.881 -.352 C -2.064 -.297 -2.27 -.222 -2.493 -.126 C -2.718 -.03 -2.91 .082 -3.07 .211 C -3.242 .348 -3.383 .516 -3.492 .715 C -3.602 .914 -3.656 1.148 -3.656 1.418 C -3.656 1.891 -3.48 2.291 -3.129 2.619 C -2.777 2.947 -2.307 3.111 -1.717 3.111 C -1.49 3.111 -1.259 3.082 -1.022 3.023 C -.786 2.965 -.594 2.895 -.445 2.813 L -.311 3.117 L .111 3.117 L .199 1.26 L -.205 1.26 C -.287 1.675 -.464 2.014 -.735 2.275 C -1.007 2.536 -1.338 2.666 -1.729 2.666 C -2.049 2.666 -2.301 2.585 -2.484 2.424 C -2.668 2.263 -2.76 2.068 -2.76 1.84 C -2.76 1.664 -2.729 1.518 -2.669 1.4 C -2.608 1.283 -2.518 1.184 -2.396 1.102 C -2.279 1.023 -2.132 .95 -1.954 .882 C -1.776 .813 -1.557 .736 -1.295 .65 C -1.037 .568 -.794 .473 -.565 .363 C -.337 .254 -.148 .133 0 0 " fill="#231f20"></path>
<path transform="matrix(1,0,0,-1,357.7822,230.4154)" d="M 0 0 C -.254 -.105 -.494 -.194 -.721 -.267 C -.947 -.339 -1.225 -.375 -1.553 -.375 C -2.037 -.375 -2.378 -.253 -2.575 -.009 C -2.772 .235 -2.871 .58 -2.871 1.025 L -2.871 4.939 L -3.914 4.939 L -3.914 5.502 L -2.848 5.502 L -2.848 7.301 L -1.781 7.301 L -1.781 5.502 L -.123 5.502 L -.123 4.939 L -1.771 4.939 L -1.771 1.711 C -1.771 1.469 -1.761 1.267 -1.743 1.104 C -1.726 .942 -1.684 .801 -1.617 .68 C -1.555 .566 -1.461 .48 -1.336 .422 C -1.211 .363 -1.043 .334 -.832 .334 C -.734 .334 -.591 .343 -.401 .36 C -.212 .378 -.078 .4 0 .428 Z " fill="#231f20"></path>
<path transform="matrix(1,0,0,-1,364.1719,225.24744)" d="M 0 0 C -.176 -.031 -.343 -.095 -.501 -.19 C -.659 -.286 -.795 -.455 -.908 -.697 C -1.139 -1.221 -1.377 -1.767 -1.623 -2.335 C -1.869 -2.903 -2.125 -3.5 -2.391 -4.125 C -2.469 -4.305 -2.552 -4.518 -2.64 -4.764 C -2.728 -5.01 -2.809 -5.246 -2.883 -5.473 L -3.34 -5.473 C -3.711 -4.555 -4.053 -3.718 -4.365 -2.962 C -4.678 -2.206 -5.002 -1.432 -5.338 -.639 C -5.416 -.459 -5.542 -.319 -5.716 -.22 C -5.89 -.12 -6.064 -.057 -6.24 -.029 L -6.24 .357 L -3.566 .357 L -3.566 -.053 C -3.684 -.057 -3.83 -.081 -4.006 -.126 C -4.182 -.171 -4.27 -.232 -4.27 -.31 C -4.27 -.322 -4.26 -.352 -4.24 -.401 C -4.221 -.45 -4.201 -.505 -4.182 -.567 C -4.021 -.966 -3.796 -1.521 -3.504 -2.236 C -3.212 -2.95 -2.975 -3.525 -2.791 -3.962 C -2.65 -3.627 -2.474 -3.209 -2.261 -2.71 C -2.048 -2.21 -1.818 -1.652 -1.572 -1.036 C -1.533 -.931 -1.496 -.832 -1.461 -.74 C -1.426 -.648 -1.408 -.556 -1.408 -.462 C -1.408 -.396 -1.44 -.336 -1.505 -.284 C -1.569 -.231 -1.646 -.186 -1.736 -.146 C -1.826 -.107 -1.914 -.078 -2 -.059 C -2.086 -.039 -2.156 -.025 -2.211 -.018 L -2.211 .357 L 0 .357 Z " fill="#231f20"></path>
<path transform="matrix(1,0,0,-1,368.3799,227.73181)" d="M 0 0 C 0 .293 -.029 .603 -.088 .929 C -.146 1.255 -.234 1.531 -.353 1.758 C -.478 2 -.642 2.194 -.846 2.341 C -1.049 2.487 -1.297 2.561 -1.591 2.561 C -1.893 2.561 -2.149 2.486 -2.362 2.338 C -2.576 2.189 -2.749 1.986 -2.882 1.729 C -3.008 1.49 -3.096 1.219 -3.146 .914 C -3.197 .609 -3.223 .314 -3.223 .029 C -3.223 -.346 -3.192 -.692 -3.132 -1.011 C -3.071 -1.329 -2.975 -1.613 -2.841 -1.863 C -2.708 -2.113 -2.541 -2.31 -2.339 -2.452 C -2.138 -2.595 -1.889 -2.666 -1.591 -2.666 C -1.102 -2.666 -.714 -2.43 -.429 -1.957 C -.143 -1.484 0 -.832 0 0 M 1.213 .012 C 1.213 -.395 1.148 -.794 1.021 -1.187 C .891 -1.579 .706 -1.912 .468 -2.186 C .198 -2.498 -.114 -2.73 -.471 -2.883 C -.826 -3.035 -1.226 -3.111 -1.667 -3.111 C -2.035 -3.111 -2.385 -3.042 -2.717 -2.903 C -3.05 -2.765 -3.345 -2.563 -3.603 -2.297 C -3.856 -2.035 -4.06 -1.716 -4.21 -1.339 C -4.36 -.962 -4.436 -.539 -4.436 -.07 C -4.436 .832 -4.173 1.57 -3.646 2.145 C -3.121 2.719 -2.432 3.006 -1.579 3.006 C -.77 3.006 -.102 2.733 .424 2.188 C .95 1.644 1.213 .918 1.213 .012 " fill="#231f20"></path>
<path transform="matrix(1,0,0,-1,288.9756,243.6673)" d="M 0 0 L -1.743 0 C -2.048 .441 -2.375 .913 -2.723 1.417 C -3.071 1.92 -3.433 2.41 -3.808 2.886 L -4.289 2.438 L -4.289 1.066 C -4.289 .926 -4.264 .81 -4.213 .718 C -4.162 .626 -4.08 .559 -3.967 .516 C -3.873 .477 -3.783 .447 -3.697 .428 C -3.611 .408 -3.512 .395 -3.398 .387 L -3.398 0 L -6.229 0 L -6.229 .387 C -6.139 .395 -6.046 .403 -5.949 .413 C -5.852 .423 -5.771 .438 -5.705 .457 C -5.596 .492 -5.515 .554 -5.46 .642 C -5.406 .729 -5.379 .844 -5.379 .985 L -5.379 7.705 C -5.379 7.849 -5.409 7.985 -5.47 8.112 C -5.53 8.239 -5.609 8.336 -5.707 8.402 C -5.789 8.465 -5.917 8.506 -6.091 8.525 C -6.265 8.545 -6.404 8.559 -6.51 8.566 L -6.51 8.941 L -4.371 9.07 L -4.289 8.982 L -4.289 2.87 C -3.984 3.175 -3.655 3.501 -3.301 3.851 C -2.947 4.2 -2.649 4.512 -2.407 4.785 C -2.375 4.82 -2.341 4.867 -2.304 4.923 C -2.267 4.98 -2.249 5.026 -2.249 5.062 C -2.249 5.167 -2.333 5.246 -2.503 5.296 C -2.673 5.348 -2.836 5.383 -2.993 5.402 L -2.993 5.777 L -.451 5.777 L -.451 5.414 C -.779 5.316 -1.069 5.194 -1.321 5.048 C -1.573 4.901 -1.766 4.77 -1.898 4.652 C -1.992 4.574 -2.125 4.447 -2.297 4.272 C -2.469 4.097 -2.71 3.866 -3.019 3.582 C -2.698 3.187 -2.338 2.714 -1.937 2.163 C -1.537 1.612 -1.244 1.213 -1.061 .967 C -.889 .736 -.734 .586 -.598 .516 C -.461 .445 -.262 .402 0 .387 Z " fill="#231f20"></path>
<path transform="matrix(1,0,0,-1,295.4736,243.56189)" d="M 0 0 L -1.886 -.129 L -1.975 -.047 L -1.975 .686 L -2.01 .686 C -2.104 .588 -2.208 .483 -2.326 .372 C -2.442 .261 -2.577 .16 -2.729 .07 C -2.905 -.035 -3.074 -.115 -3.238 -.17 C -3.402 -.225 -3.634 -.252 -3.934 -.252 C -4.445 -.252 -4.834 -.085 -5.102 .249 C -5.369 .582 -5.502 1.067 -5.502 1.703 L -5.502 4.466 C -5.502 4.606 -5.528 4.724 -5.582 4.82 C -5.635 4.915 -5.712 4.998 -5.814 5.068 C -5.885 5.115 -5.974 5.149 -6.08 5.171 C -6.186 5.192 -6.298 5.207 -6.416 5.215 L -6.416 5.602 L -4.488 5.742 L -4.4 5.66 L -4.4 1.646 C -4.4 1.229 -4.307 .914 -4.119 .703 C -3.932 .492 -3.707 .387 -3.445 .387 C -3.23 .387 -3.039 .42 -2.871 .486 C -2.703 .552 -2.563 .63 -2.449 .72 C -2.344 .802 -2.251 .889 -2.171 .98 C -2.091 1.072 -2.029 1.157 -1.986 1.235 L -1.986 4.507 C -1.986 4.635 -2.014 4.75 -2.068 4.849 C -2.123 4.949 -2.199 5.033 -2.297 5.104 C -2.367 5.15 -2.472 5.179 -2.61 5.188 C -2.749 5.198 -2.904 5.207 -3.076 5.215 L -3.076 5.602 L -.973 5.742 L -.885 5.66 L -.885 1.077 C -.885 .945 -.857 .832 -.803 .738 C -.748 .644 -.672 .564 -.574 .498 C -.504 .455 -.42 .427 -.322 .413 C -.225 .399 -.117 .391 0 .387 Z " fill="#231f20"></path>
<path transform="matrix(1,0,0,-1,298.8896,243.6673)" d="M 0 0 L -2.818 0 L -2.818 .387 C -2.729 .395 -2.633 .403 -2.531 .413 C -2.43 .423 -2.346 .438 -2.279 .457 C -2.17 .492 -2.088 .554 -2.033 .642 C -1.979 .729 -1.951 .844 -1.951 .985 L -1.951 7.681 C -1.951 7.822 -1.981 7.954 -2.042 8.077 C -2.103 8.2 -2.182 8.297 -2.279 8.367 C -2.35 8.414 -2.479 8.457 -2.666 8.496 C -2.854 8.535 -3.004 8.559 -3.117 8.566 L -3.117 8.941 L -.943 9.07 L -.861 8.982 L -.861 1.055 C -.861 .918 -.836 .806 -.785 .718 C -.734 .63 -.652 .563 -.539 .516 C -.453 .477 -.368 .447 -.284 .428 C -.2 .408 -.105 .395 0 .387 Z " fill="#231f20"></path>
<path transform="matrix(1,0,0,-1,303.4121,243.4154)" d="M 0 0 C -.254 -.105 -.494 -.194 -.721 -.267 C -.947 -.339 -1.225 -.375 -1.553 -.375 C -2.037 -.375 -2.378 -.253 -2.575 -.009 C -2.772 .235 -2.871 .58 -2.871 1.025 L -2.871 4.939 L -3.914 4.939 L -3.914 5.502 L -2.848 5.502 L -2.848 7.301 L -1.781 7.301 L -1.781 5.502 L -.123 5.502 L -.123 4.939 L -1.77 4.939 L -1.77 1.711 C -1.77 1.469 -1.761 1.267 -1.743 1.104 C -1.726 .942 -1.684 .801 -1.617 .68 C -1.555 .566 -1.461 .48 -1.336 .422 C -1.211 .363 -1.043 .334 -.832 .334 C -.734 .334 -.591 .343 -.401 .36 C -.212 .378 -.078 .4 0 .428 Z " fill="#231f20"></path>
<path transform="matrix(1,0,0,-1,310.4082,243.56189)" d="M 0 0 L -1.887 -.129 L -1.975 -.047 L -1.975 .686 L -2.01 .686 C -2.104 .588 -2.209 .483 -2.325 .372 C -2.442 .261 -2.577 .16 -2.729 .07 C -2.904 -.035 -3.074 -.115 -3.238 -.17 C -3.402 -.225 -3.634 -.252 -3.935 -.252 C -4.445 -.252 -4.834 -.085 -5.102 .249 C -5.368 .582 -5.502 1.067 -5.502 1.703 L -5.502 4.466 C -5.502 4.606 -5.528 4.724 -5.582 4.82 C -5.635 4.915 -5.712 4.998 -5.814 5.068 C -5.886 5.115 -5.974 5.149 -6.08 5.171 C -6.188 5.192 -6.298 5.207 -6.416 5.215 L -6.416 5.602 L -4.488 5.742 L -4.4 5.66 L -4.4 1.646 C -4.4 1.229 -4.307 .914 -4.119 .703 C -3.932 .492 -3.707 .387 -3.445 .387 C -3.23 .387 -3.039 .42 -2.871 .486 C -2.703 .552 -2.563 .63 -2.449 .72 C -2.344 .802 -2.251 .889 -2.171 .98 C -2.091 1.072 -2.029 1.157 -1.986 1.235 L -1.986 4.507 C -1.986 4.635 -2.014 4.75 -2.068 4.849 C -2.123 4.949 -2.199 5.033 -2.297 5.104 C -2.367 5.15 -2.472 5.179 -2.61 5.188 C -2.749 5.198 -2.904 5.207 -3.076 5.215 L -3.076 5.602 L -.973 5.742 L -.885 5.66 L -.885 1.077 C -.885 .945 -.857 .832 -.803 .738 C -.748 .644 -.672 .564 -.574 .498 C -.504 .455 -.42 .427 -.322 .413 C -.225 .399 -.117 .391 0 .387 Z " fill="#231f20"></path>
<path transform="matrix(1,0,0,-1,315.541,238.6341)" d="M 0 0 C 0 -.199 -.049 -.376 -.146 -.53 C -.244 -.685 -.396 -.762 -.598 -.762 C -.816 -.762 -.983 -.705 -1.099 -.592 C -1.214 -.479 -1.271 -.354 -1.271 -.217 C -1.271 -.131 -1.265 -.053 -1.251 .018 C -1.237 .088 -1.225 .158 -1.213 .229 C -1.396 .229 -1.611 .154 -1.857 .006 C -2.104 -.143 -2.313 -.354 -2.484 -.627 L -2.484 -3.99 C -2.484 -4.127 -2.458 -4.238 -2.405 -4.324 C -2.354 -4.41 -2.271 -4.475 -2.156 -4.518 C -2.059 -4.557 -1.933 -4.586 -1.778 -4.605 C -1.624 -4.625 -1.49 -4.639 -1.377 -4.646 L -1.377 -5.033 L -4.424 -5.033 L -4.424 -4.646 C -4.334 -4.639 -4.241 -4.631 -4.146 -4.623 C -4.05 -4.615 -3.967 -4.6 -3.896 -4.576 C -3.787 -4.541 -3.706 -4.48 -3.653 -4.392 C -3.601 -4.304 -3.574 -4.19 -3.574 -4.05 L -3.574 -.485 C -3.574 -.364 -3.604 -.246 -3.659 -.128 C -3.716 -.011 -3.795 .082 -3.896 .152 C -3.971 .199 -4.059 .233 -4.16 .255 C -4.262 .276 -4.371 .291 -4.488 .299 L -4.488 .686 L -2.566 .814 L -2.484 .732 L -2.484 -.082 L -2.455 -.082 C -2.213 .234 -1.943 .475 -1.646 .639 C -1.35 .803 -1.078 .885 -.832 .885 C -.586 .885 -.386 .805 -.231 .645 C -.077 .484 0 .27 0 0 " fill="#231f20"></path>
<path transform="matrix(1,0,0,-1,322.4141,243.6673)" d="M 0 0 L -2.824 0 L -2.824 .387 C -2.734 .395 -2.636 .402 -2.528 .41 C -2.421 .418 -2.332 .434 -2.262 .457 C -2.152 .492 -2.071 .554 -2.019 .642 C -1.966 .729 -1.939 .844 -1.939 .984 L -1.939 3.955 C -1.939 4.365 -2.036 4.682 -2.23 4.904 C -2.424 5.127 -2.66 5.238 -2.938 5.238 C -3.146 5.238 -3.335 5.206 -3.508 5.142 C -3.68 5.077 -3.833 4.998 -3.966 4.904 C -4.095 4.814 -4.197 4.718 -4.274 4.614 C -4.351 4.511 -4.406 4.428 -4.441 4.365 L -4.441 1.043 C -4.441 .91 -4.414 .801 -4.359 .715 C -4.305 .629 -4.223 .563 -4.113 .516 C -4.031 .477 -3.942 .447 -3.847 .428 C -3.751 .408 -3.652 .395 -3.551 .387 L -3.551 0 L -6.381 0 L -6.381 .387 C -6.291 .395 -6.198 .402 -6.103 .41 C -6.007 .418 -5.924 .434 -5.854 .457 C -5.744 .492 -5.663 .553 -5.61 .641 C -5.558 .729 -5.531 .843 -5.531 .983 L -5.531 4.548 C -5.531 4.681 -5.56 4.802 -5.616 4.914 C -5.673 5.025 -5.752 5.115 -5.854 5.186 C -5.928 5.232 -6.016 5.267 -6.117 5.288 C -6.219 5.31 -6.328 5.324 -6.445 5.332 L -6.445 5.719 L -4.523 5.848 L -4.441 5.766 L -4.441 4.951 L -4.412 4.951 C -4.318 5.045 -4.201 5.157 -4.061 5.288 C -3.92 5.419 -3.787 5.525 -3.662 5.607 C -3.518 5.701 -3.346 5.779 -3.146 5.842 C -2.947 5.904 -2.723 5.936 -2.473 5.936 C -1.918 5.936 -1.507 5.763 -1.239 5.417 C -.972 5.071 -.838 4.611 -.838 4.037 L -.838 1.031 C -.838 .895 -.814 .784 -.768 .7 C -.721 .616 -.641 .551 -.527 .504 C -.434 .465 -.353 .438 -.284 .422 C -.216 .406 -.121 .395 0 .387 Z " fill="#231f20"></path>
<path transform="matrix(1,0,0,-1,326.9609,240.1048)" d="M 0 0 C 0 .218 -.02 .452 -.056 .701 C -.093 .95 -.152 1.159 -.234 1.326 C -.324 1.505 -.447 1.651 -.604 1.764 C -.76 1.877 -.961 1.934 -1.207 1.934 C -1.617 1.934 -1.958 1.763 -2.229 1.422 C -2.501 1.082 -2.648 .607 -2.672 0 Z M 1.295 -2.203 C 1.053 -2.664 .729 -3.031 .322 -3.305 C -.084 -3.578 -.551 -3.715 -1.078 -3.715 C -1.543 -3.715 -1.95 -3.633 -2.3 -3.469 C -2.649 -3.305 -2.938 -3.082 -3.164 -2.801 C -3.391 -2.52 -3.561 -2.191 -3.671 -1.816 C -3.782 -1.441 -3.838 -1.045 -3.838 -.627 C -3.838 -.252 -3.778 .116 -3.659 .478 C -3.54 .839 -3.365 1.164 -3.135 1.453 C -2.912 1.73 -2.636 1.954 -2.306 2.124 C -1.976 2.294 -1.605 2.379 -1.195 2.379 C -.773 2.379 -.412 2.313 -.111 2.18 C .189 2.047 .434 1.865 .621 1.635 C .801 1.416 .935 1.158 1.021 .861 C 1.11 .564 1.154 .242 1.154 -.105 L 1.154 -.492 L -2.672 -.492 C -2.672 -.872 -2.636 -1.217 -2.563 -1.526 C -2.491 -1.835 -2.377 -2.107 -2.221 -2.342 C -2.068 -2.569 -1.869 -2.749 -1.623 -2.879 C -1.377 -3.011 -1.084 -3.076 -.744 -3.076 C -.396 -3.076 -.097 -2.995 .155 -2.832 C .407 -2.669 .65 -2.375 .885 -1.951 Z " fill="#231f20"></path>
<path transform="matrix(1,0,0,-1,335.7852,242.54822)" d="M 0 0 L 0 3.381 C -.031 3.482 -.082 3.592 -.152 3.709 C -.223 3.826 -.31 3.934 -.415 4.031 C -.528 4.129 -.661 4.21 -.813 4.274 C -.965 4.339 -1.143 4.371 -1.345 4.371 C -1.579 4.371 -1.795 4.311 -1.991 4.189 C -2.188 4.068 -2.362 3.895 -2.515 3.668 C -2.659 3.449 -2.771 3.171 -2.856 2.833 C -2.94 2.495 -2.982 2.121 -2.982 1.711 C -2.982 1.383 -2.951 1.085 -2.889 .817 C -2.826 .55 -2.722 .301 -2.573 .07 C -2.437 -.148 -2.262 -.324 -2.05 -.457 C -1.837 -.59 -1.585 -.656 -1.292 -.656 C -.98 -.656 -.723 -.588 -.518 -.451 C -.313 -.314 -.141 -.164 0 0 M 2.121 -1.014 L .1 -1.143 L .012 -1.061 L .012 -.521 L -.035 -.51 C -.238 -.736 -.488 -.922 -.787 -1.066 C -1.086 -1.211 -1.393 -1.283 -1.709 -1.283 C -2.036 -1.283 -2.354 -1.21 -2.659 -1.063 C -2.966 -.917 -3.231 -.711 -3.458 -.445 C -3.688 -.176 -3.87 .148 -4.005 .527 C -4.14 .906 -4.207 1.324 -4.207 1.781 C -4.207 2.199 -4.135 2.596 -3.99 2.971 C -3.847 3.346 -3.646 3.674 -3.394 3.955 C -3.156 4.217 -2.864 4.426 -2.519 4.582 C -2.174 4.738 -1.821 4.816 -1.463 4.816 C -1.193 4.816 -.93 4.782 -.67 4.714 C -.41 4.646 -.188 4.559 0 4.453 L 0 6.467 C 0 6.631 -.027 6.781 -.082 6.916 C -.137 7.051 -.213 7.154 -.311 7.224 C -.42 7.298 -.567 7.352 -.753 7.386 C -.938 7.419 -1.139 7.443 -1.354 7.459 L -1.354 7.822 L 1.014 7.951 L 1.102 7.863 L 1.102 .076 C 1.102 -.061 1.128 -.177 1.181 -.273 C 1.233 -.368 1.311 -.449 1.412 -.516 C 1.486 -.563 1.594 -.592 1.734 -.604 C 1.875 -.615 2.004 -.623 2.121 -.627 Z " fill="#231f20"></path>
<path transform="matrix(1,0,0,-1,342.3066,240.1048)" d="M 0 0 C 0 .218 -.02 .452 -.056 .701 C -.093 .95 -.152 1.159 -.234 1.326 C -.324 1.505 -.447 1.651 -.604 1.764 C -.76 1.877 -.961 1.934 -1.207 1.934 C -1.617 1.934 -1.958 1.763 -2.229 1.422 C -2.501 1.082 -2.648 .607 -2.672 0 Z M 1.295 -2.203 C 1.053 -2.664 .729 -3.031 .322 -3.305 C -.084 -3.578 -.551 -3.715 -1.078 -3.715 C -1.543 -3.715 -1.95 -3.633 -2.3 -3.469 C -2.649 -3.305 -2.938 -3.082 -3.164 -2.801 C -3.391 -2.52 -3.561 -2.191 -3.671 -1.816 C -3.782 -1.441 -3.838 -1.045 -3.838 -.627 C -3.838 -.252 -3.778 .116 -3.659 .478 C -3.54 .839 -3.365 1.164 -3.135 1.453 C -2.912 1.73 -2.636 1.954 -2.306 2.124 C -1.976 2.294 -1.605 2.379 -1.195 2.379 C -.773 2.379 -.412 2.313 -.111 2.18 C .189 2.047 .434 1.865 .621 1.635 C .801 1.416 .935 1.158 1.021 .861 C 1.11 .564 1.154 .242 1.154 -.105 L 1.154 -.492 L -2.672 -.492 C -2.672 -.872 -2.636 -1.217 -2.563 -1.526 C -2.491 -1.835 -2.377 -2.107 -2.221 -2.342 C -2.068 -2.569 -1.869 -2.749 -1.623 -2.879 C -1.377 -3.011 -1.084 -3.076 -.744 -3.076 C -.396 -3.076 -.097 -2.995 .155 -2.832 C .407 -2.669 .65 -2.375 .885 -1.951 Z " fill="#231f20"></path>
<path transform="matrix(1,0,0,-1,348.4766,242.54822)" d="M 0 0 L 0 3.381 C -.031 3.482 -.082 3.592 -.152 3.709 C -.223 3.826 -.31 3.934 -.415 4.031 C -.528 4.129 -.661 4.21 -.813 4.274 C -.965 4.339 -1.143 4.371 -1.345 4.371 C -1.579 4.371 -1.795 4.311 -1.991 4.189 C -2.188 4.068 -2.362 3.895 -2.515 3.668 C -2.659 3.449 -2.771 3.171 -2.856 2.833 C -2.94 2.495 -2.982 2.121 -2.982 1.711 C -2.982 1.383 -2.951 1.085 -2.889 .817 C -2.826 .55 -2.722 .301 -2.573 .07 C -2.437 -.148 -2.262 -.324 -2.05 -.457 C -1.837 -.59 -1.585 -.656 -1.292 -.656 C -.98 -.656 -.723 -.588 -.518 -.451 C -.313 -.314 -.141 -.164 0 0 M 2.121 -1.014 L .1 -1.143 L .012 -1.061 L .012 -.521 L -.035 -.51 C -.238 -.736 -.488 -.922 -.787 -1.066 C -1.086 -1.211 -1.393 -1.283 -1.709 -1.283 C -2.036 -1.283 -2.354 -1.21 -2.659 -1.063 C -2.966 -.917 -3.231 -.711 -3.458 -.445 C -3.688 -.176 -3.87 .148 -4.005 .527 C -4.14 .906 -4.207 1.324 -4.207 1.781 C -4.207 2.199 -4.135 2.596 -3.99 2.971 C -3.847 3.346 -3.646 3.674 -3.394 3.955 C -3.156 4.217 -2.864 4.426 -2.519 4.582 C -2.174 4.738 -1.821 4.816 -1.463 4.816 C -1.193 4.816 -.93 4.782 -.67 4.714 C -.41 4.646 -.188 4.559 0 4.453 L 0 6.467 C 0 6.631 -.027 6.781 -.082 6.916 C -.137 7.051 -.213 7.154 -.311 7.224 C -.42 7.298 -.567 7.352 -.753 7.386 C -.938 7.419 -1.139 7.443 -1.354 7.459 L -1.354 7.822 L 1.014 7.951 L 1.102 7.863 L 1.102 .076 C 1.102 -.061 1.128 -.177 1.181 -.273 C 1.233 -.368 1.311 -.449 1.412 -.516 C 1.486 -.563 1.594 -.592 1.734 -.604 C 1.875 -.615 2.004 -.623 2.121 -.627 Z " fill="#231f20"></path>
<path transform="matrix(1,0,0,-1,353.4688,235.5404)" d="M 0 0 C 0 -.223 -.073 -.417 -.22 -.583 C -.366 -.749 -.547 -.832 -.762 -.832 C -.961 -.832 -1.134 -.753 -1.28 -.595 C -1.427 -.437 -1.5 -.256 -1.5 -.053 C -1.5 .162 -1.427 .35 -1.28 .51 C -1.134 .67 -.961 .75 -.762 .75 C -.539 .75 -.355 .675 -.214 .524 C -.071 .374 0 .199 0 0 M .732 -8.127 L -2.057 -8.127 L -2.057 -7.74 C -1.967 -7.732 -1.874 -7.725 -1.778 -7.717 C -1.683 -7.709 -1.6 -7.693 -1.529 -7.67 C -1.42 -7.635 -1.339 -7.574 -1.286 -7.486 C -1.233 -7.398 -1.207 -7.284 -1.207 -7.144 L -1.207 -3.579 C -1.207 -3.454 -1.235 -3.34 -1.292 -3.237 C -1.349 -3.133 -1.428 -3.046 -1.529 -2.977 C -1.604 -2.93 -1.711 -2.89 -1.852 -2.856 C -1.992 -2.823 -2.121 -2.803 -2.238 -2.795 L -2.238 -2.408 L -.199 -2.279 L -.117 -2.361 L -.117 -7.072 C -.117 -7.209 -.091 -7.322 -.039 -7.412 C .014 -7.502 .096 -7.568 .209 -7.611 C .294 -7.646 .377 -7.675 .459 -7.696 C .54 -7.718 .632 -7.732 .732 -7.74 Z " fill="#231f20"></path>
<path transform="matrix(1,0,0,-1,359.2813,234.8197)" d="M 0 0 L -1.4 -2.057 C -1.467 -2.143 -1.523 -2.204 -1.57 -2.241 C -1.617 -2.278 -1.725 -2.297 -1.893 -2.297 C -2.068 -2.297 -2.185 -2.275 -2.241 -2.232 C -2.298 -2.189 -2.357 -2.123 -2.42 -2.033 L -3.809 0 L -3.527 .188 L -1.916 -1.412 L -.281 .188 Z M -.311 -6.018 C -.15 -6.158 -.027 -6.32 .059 -6.504 C .146 -6.688 .188 -6.912 .188 -7.178 C .188 -7.713 -.013 -8.15 -.413 -8.49 C -.813 -8.83 -1.332 -9 -1.969 -9 C -2.305 -9 -2.614 -8.939 -2.896 -8.818 C -3.181 -8.697 -3.383 -8.586 -3.504 -8.484 L -3.621 -8.865 L -4.061 -8.865 L -4.119 -6.855 L -3.715 -6.855 C -3.684 -7.008 -3.617 -7.187 -3.516 -7.391 C -3.414 -7.594 -3.291 -7.779 -3.146 -7.943 C -2.994 -8.116 -2.812 -8.261 -2.599 -8.378 C -2.386 -8.496 -2.146 -8.555 -1.881 -8.555 C -1.506 -8.555 -1.217 -8.469 -1.014 -8.298 C -.811 -8.127 -.709 -7.883 -.709 -7.564 C -.709 -7.4 -.741 -7.259 -.806 -7.14 C -.87 -7.021 -.965 -6.916 -1.09 -6.826 C -1.219 -6.736 -1.377 -6.655 -1.564 -6.583 C -1.752 -6.511 -1.961 -6.439 -2.191 -6.369 C -2.375 -6.314 -2.579 -6.239 -2.804 -6.144 C -3.028 -6.048 -3.221 -5.936 -3.381 -5.807 C -3.553 -5.67 -3.693 -5.502 -3.803 -5.303 C -3.912 -5.104 -3.967 -4.869 -3.967 -4.6 C -3.967 -4.127 -3.791 -3.727 -3.439 -3.398 C -3.088 -3.07 -2.617 -2.906 -2.027 -2.906 C -1.801 -2.906 -1.569 -2.936 -1.333 -2.994 C -1.097 -3.053 -.904 -3.123 -.756 -3.205 L -.621 -2.9 L -.199 -2.9 L -.111 -4.758 L -.516 -4.758 C -.598 -4.342 -.774 -4.004 -1.046 -3.743 C -1.317 -3.482 -1.648 -3.352 -2.039 -3.352 C -2.359 -3.352 -2.611 -3.432 -2.795 -3.594 C -2.979 -3.755 -3.07 -3.95 -3.07 -4.178 C -3.07 -4.354 -3.04 -4.5 -2.979 -4.617 C -2.919 -4.734 -2.828 -4.834 -2.707 -4.916 C -2.59 -4.994 -2.442 -5.067 -2.265 -5.136 C -2.087 -5.204 -1.867 -5.281 -1.604 -5.367 C -1.348 -5.449 -1.104 -5.545 -.876 -5.654 C -.646 -5.764 -.459 -5.885 -.311 -6.018 " fill="#231f20"></path>
<path transform="matrix(1,0,0,-1,364.8887,234.8197)" d="M 0 0 L -1.4 -2.057 C -1.467 -2.143 -1.523 -2.204 -1.57 -2.241 C -1.617 -2.278 -1.725 -2.297 -1.893 -2.297 C -2.068 -2.297 -2.185 -2.275 -2.241 -2.232 C -2.298 -2.189 -2.357 -2.123 -2.42 -2.033 L -3.809 0 L -3.527 .188 L -1.916 -1.412 L -.281 .188 Z M -1.875 -9 C -2.711 -9 -3.365 -8.723 -3.838 -8.168 C -4.311 -7.613 -4.547 -6.869 -4.547 -5.936 C -4.547 -5.529 -4.483 -5.149 -4.356 -4.796 C -4.229 -4.442 -4.045 -4.121 -3.803 -3.832 C -3.572 -3.555 -3.283 -3.331 -2.936 -3.161 C -2.588 -2.991 -2.209 -2.906 -1.799 -2.906 C -1.232 -2.906 -.771 -3.042 -.416 -3.313 C -.061 -3.585 .117 -3.955 .117 -4.424 C .117 -4.619 .07 -4.792 -.023 -4.942 C -.117 -5.093 -.271 -5.168 -.486 -5.168 C -.717 -5.168 -.896 -5.109 -1.021 -4.993 C -1.149 -4.876 -1.213 -4.746 -1.213 -4.602 C -1.213 -4.426 -1.189 -4.246 -1.143 -4.061 C -1.096 -3.876 -1.068 -3.741 -1.061 -3.655 C -1.131 -3.535 -1.235 -3.454 -1.373 -3.413 C -1.512 -3.372 -1.661 -3.352 -1.82 -3.352 C -2.008 -3.352 -2.186 -3.392 -2.355 -3.472 C -2.524 -3.552 -2.689 -3.699 -2.849 -3.914 C -2.993 -4.109 -3.11 -4.373 -3.199 -4.705 C -3.289 -5.037 -3.334 -5.434 -3.334 -5.895 C -3.334 -6.621 -3.173 -7.214 -2.852 -7.673 C -2.529 -8.132 -2.107 -8.361 -1.585 -8.361 C -1.206 -8.361 -.89 -8.269 -.634 -8.084 C -.379 -7.9 -.142 -7.623 .077 -7.254 L .451 -7.5 C .193 -7.961 -.146 -8.326 -.568 -8.596 C -.99 -8.865 -1.426 -9 -1.875 -9 " fill="#231f20"></path>
<path transform="matrix(1,0,0,-1,367.8594,235.5404)" d="M 0 0 C 0 -.223 -.073 -.417 -.22 -.583 C -.366 -.749 -.547 -.832 -.762 -.832 C -.961 -.832 -1.134 -.753 -1.28 -.595 C -1.427 -.437 -1.5 -.256 -1.5 -.053 C -1.5 .162 -1.427 .35 -1.28 .51 C -1.134 .67 -.961 .75 -.762 .75 C -.539 .75 -.356 .675 -.214 .524 C -.071 .374 0 .199 0 0 M .732 -8.127 L -2.057 -8.127 L -2.057 -7.74 C -1.967 -7.732 -1.874 -7.725 -1.778 -7.717 C -1.683 -7.709 -1.6 -7.693 -1.529 -7.67 C -1.42 -7.635 -1.339 -7.574 -1.286 -7.486 C -1.233 -7.398 -1.207 -7.284 -1.207 -7.144 L -1.207 -3.579 C -1.207 -3.454 -1.235 -3.34 -1.292 -3.237 C -1.349 -3.133 -1.428 -3.046 -1.529 -2.977 C -1.604 -2.93 -1.711 -2.89 -1.852 -2.856 C -1.992 -2.823 -2.121 -2.803 -2.238 -2.795 L -2.238 -2.408 L -.199 -2.279 L -.117 -2.361 L -.117 -7.072 C -.117 -7.209 -.091 -7.322 -.039 -7.412 C .014 -7.502 .096 -7.568 .209 -7.611 C .294 -7.646 .377 -7.675 .459 -7.696 C .54 -7.718 .632 -7.732 .732 -7.74 Z " fill="#231f20"></path>
<path transform="matrix(1,0,0,-1,375.6875,243.6673)" d="M 0 0 L -2.824 0 L -2.824 .387 C -2.734 .395 -2.636 .402 -2.528 .41 C -2.421 .418 -2.332 .434 -2.262 .457 C -2.152 .492 -2.071 .554 -2.019 .642 C -1.966 .729 -1.939 .844 -1.939 .984 L -1.939 3.955 C -1.939 4.365 -2.036 4.682 -2.23 4.904 C -2.424 5.127 -2.66 5.238 -2.938 5.238 C -3.146 5.238 -3.335 5.206 -3.508 5.142 C -3.68 5.077 -3.833 4.998 -3.966 4.904 C -4.095 4.814 -4.197 4.718 -4.274 4.614 C -4.351 4.511 -4.406 4.428 -4.441 4.365 L -4.441 1.043 C -4.441 .91 -4.414 .801 -4.359 .715 C -4.305 .629 -4.223 .563 -4.113 .516 C -4.031 .477 -3.942 .447 -3.847 .428 C -3.751 .408 -3.652 .395 -3.551 .387 L -3.551 0 L -6.381 0 L -6.381 .387 C -6.291 .395 -6.198 .402 -6.104 .41 C -6.007 .418 -5.924 .434 -5.854 .457 C -5.744 .492 -5.663 .553 -5.61 .641 C -5.558 .729 -5.531 .843 -5.531 .983 L -5.531 4.548 C -5.531 4.681 -5.56 4.802 -5.616 4.914 C -5.673 5.025 -5.752 5.115 -5.854 5.186 C -5.928 5.232 -6.016 5.267 -6.117 5.288 C -6.219 5.31 -6.328 5.324 -6.445 5.332 L -6.445 5.719 L -4.523 5.848 L -4.441 5.766 L -4.441 4.951 L -4.412 4.951 C -4.318 5.045 -4.201 5.157 -4.061 5.288 C -3.92 5.419 -3.787 5.525 -3.662 5.607 C -3.518 5.701 -3.346 5.779 -3.146 5.842 C -2.947 5.904 -2.723 5.936 -2.473 5.936 C -1.918 5.936 -1.507 5.763 -1.239 5.417 C -.972 5.071 -.838 4.611 -.838 4.037 L -.838 1.031 C -.838 .895 -.814 .784 -.768 .7 C -.721 .616 -.641 .551 -.527 .504 C -.434 .465 -.354 .438 -.284 .422 C -.216 .406 -.121 .395 0 .387 Z " fill="#231f20"></path>
<path transform="matrix(1,0,0,-1,380.2344,240.1048)" d="M 0 0 C 0 .218 -.019 .452 -.056 .701 C -.093 .95 -.152 1.159 -.234 1.326 C -.324 1.505 -.447 1.651 -.604 1.764 C -.76 1.877 -.961 1.934 -1.207 1.934 C -1.617 1.934 -1.958 1.763 -2.229 1.422 C -2.501 1.082 -2.648 .607 -2.672 0 Z M 1.295 -2.203 C 1.053 -2.664 .729 -3.031 .322 -3.305 C -.084 -3.578 -.551 -3.715 -1.078 -3.715 C -1.543 -3.715 -1.95 -3.633 -2.3 -3.469 C -2.649 -3.305 -2.938 -3.082 -3.164 -2.801 C -3.391 -2.52 -3.56 -2.191 -3.671 -1.816 C -3.782 -1.441 -3.838 -1.045 -3.838 -.627 C -3.838 -.252 -3.778 .116 -3.659 .478 C -3.54 .839 -3.365 1.164 -3.135 1.453 C -2.912 1.73 -2.636 1.954 -2.306 2.124 C -1.976 2.294 -1.605 2.379 -1.195 2.379 C -.773 2.379 -.412 2.313 -.111 2.18 C .189 2.047 .434 1.865 .621 1.635 C .801 1.416 .935 1.158 1.022 .861 C 1.11 .564 1.154 .242 1.154 -.105 L 1.154 -.492 L -2.672 -.492 C -2.672 -.872 -2.636 -1.217 -2.563 -1.526 C -2.491 -1.835 -2.377 -2.107 -2.221 -2.342 C -2.068 -2.569 -1.869 -2.749 -1.623 -2.879 C -1.377 -3.011 -1.084 -3.076 -.744 -3.076 C -.396 -3.076 -.097 -2.995 .155 -2.832 C .407 -2.669 .65 -2.375 .885 -1.951 Z " fill="#231f20"></path>
<path transform="matrix(1,0,0,-1,390.418,239.8529)" d="M 0 0 C .176 -.195 .306 -.409 .39 -.642 C .474 -.874 .516 -1.145 .516 -1.453 C .516 -2.188 .244 -2.793 -.299 -3.27 C -.842 -3.746 -1.516 -3.984 -2.32 -3.984 C -2.691 -3.984 -3.063 -3.927 -3.434 -3.812 C -3.805 -3.696 -4.125 -3.557 -4.395 -3.393 L -4.646 -3.82 L -5.115 -3.82 L -5.197 -.973 L -4.723 -.973 C -4.625 -1.324 -4.511 -1.642 -4.38 -1.925 C -4.249 -2.208 -4.076 -2.473 -3.861 -2.719 C -3.658 -2.949 -3.421 -3.133 -3.149 -3.27 C -2.878 -3.406 -2.563 -3.475 -2.203 -3.475 C -1.934 -3.475 -1.698 -3.439 -1.497 -3.369 C -1.296 -3.299 -1.133 -3.199 -1.008 -3.07 C -.883 -2.94 -.79 -2.789 -.729 -2.615 C -.669 -2.441 -.639 -2.24 -.639 -2.014 C -.639 -1.681 -.732 -1.371 -.92 -1.083 C -1.107 -.796 -1.387 -.578 -1.758 -.43 C -2.012 -.329 -2.303 -.216 -2.631 -.094 C -2.959 .028 -3.242 .145 -3.48 .253 C -3.949 .464 -4.313 .74 -4.573 1.082 C -4.833 1.424 -4.963 1.87 -4.963 2.42 C -4.963 2.737 -4.898 3.032 -4.77 3.305 C -4.641 3.579 -4.457 3.822 -4.219 4.037 C -3.992 4.24 -3.725 4.399 -3.416 4.515 C -3.107 4.63 -2.785 4.688 -2.449 4.688 C -2.066 4.688 -1.724 4.629 -1.421 4.512 C -1.118 4.395 -.842 4.258 -.592 4.102 L -.352 4.5 L .117 4.5 L .164 1.74 L -.311 1.74 C -.396 2.057 -.493 2.359 -.601 2.648 C -.708 2.938 -.848 3.199 -1.02 3.434 C -1.188 3.66 -1.393 3.841 -1.635 3.976 C -1.877 4.11 -2.174 4.178 -2.525 4.178 C -2.896 4.178 -3.213 4.059 -3.475 3.82 C -3.736 3.582 -3.867 3.291 -3.867 2.947 C -3.867 2.588 -3.783 2.29 -3.615 2.054 C -3.447 1.817 -3.203 1.623 -2.883 1.471 C -2.598 1.334 -2.317 1.216 -2.042 1.116 C -1.767 1.017 -1.5 .91 -1.242 .797 C -1.008 .695 -.782 .58 -.565 .451 C -.349 .322 -.16 .172 0 0 " fill="#231f20"></path>
<path transform="matrix(1,0,0,-1,394.5313,243.6673)" d="M 0 0 L -2.818 0 L -2.818 .387 C -2.729 .395 -2.633 .403 -2.531 .413 C -2.43 .423 -2.346 .438 -2.279 .457 C -2.17 .492 -2.088 .554 -2.033 .642 C -1.979 .729 -1.951 .844 -1.951 .985 L -1.951 7.681 C -1.951 7.822 -1.98 7.954 -2.042 8.077 C -2.103 8.2 -2.182 8.297 -2.279 8.367 C -2.35 8.414 -2.479 8.457 -2.666 8.496 C -2.854 8.535 -3.004 8.559 -3.117 8.566 L -3.117 8.941 L -.943 9.07 L -.861 8.982 L -.861 1.055 C -.861 .918 -.836 .806 -.785 .718 C -.734 .63 -.652 .563 -.539 .516 C -.453 .477 -.368 .447 -.284 .428 C -.2 .408 -.104 .395 0 .387 Z " fill="#231f20"></path>
<path transform="matrix(1,0,0,-1,399.6816,240.73181)" d="M 0 0 C 0 .293 -.029 .603 -.088 .929 C -.146 1.255 -.234 1.531 -.354 1.758 C -.479 2 -.642 2.194 -.846 2.341 C -1.049 2.487 -1.297 2.561 -1.591 2.561 C -1.893 2.561 -2.149 2.486 -2.362 2.338 C -2.576 2.189 -2.749 1.986 -2.882 1.729 C -3.008 1.49 -3.096 1.219 -3.146 .914 C -3.197 .609 -3.223 .314 -3.223 .029 C -3.223 -.346 -3.192 -.692 -3.132 -1.011 C -3.071 -1.329 -2.975 -1.613 -2.841 -1.863 C -2.708 -2.113 -2.541 -2.31 -2.339 -2.452 C -2.138 -2.595 -1.889 -2.666 -1.591 -2.666 C -1.102 -2.666 -.714 -2.43 -.429 -1.957 C -.143 -1.484 0 -.832 0 0 M 1.213 .012 C 1.213 -.395 1.148 -.794 1.02 -1.187 C .891 -1.579 .706 -1.912 .468 -2.186 C .198 -2.498 -.114 -2.73 -.471 -2.883 C -.826 -3.035 -1.226 -3.111 -1.667 -3.111 C -2.035 -3.111 -2.385 -3.042 -2.717 -2.903 C -3.05 -2.765 -3.345 -2.563 -3.604 -2.297 C -3.856 -2.035 -4.061 -1.716 -4.21 -1.339 C -4.36 -.962 -4.436 -.539 -4.436 -.07 C -4.436 .832 -4.173 1.57 -3.646 2.145 C -3.121 2.719 -2.432 3.006 -1.579 3.006 C -.771 3.006 -.102 2.733 .424 2.188 C .95 1.644 1.213 .918 1.213 .012 " fill="#231f20"></path>
<path transform="matrix(1,0,0,-1,407.4336,238.24744)" d="M 0 0 C -.176 -.031 -.343 -.095 -.501 -.19 C -.659 -.286 -.795 -.455 -.908 -.697 C -1.139 -1.221 -1.377 -1.767 -1.623 -2.335 C -1.869 -2.903 -2.125 -3.5 -2.391 -4.125 C -2.469 -4.305 -2.552 -4.518 -2.64 -4.764 C -2.729 -5.01 -2.809 -5.246 -2.883 -5.473 L -3.34 -5.473 C -3.711 -4.555 -4.053 -3.718 -4.365 -2.962 C -4.678 -2.206 -5.002 -1.432 -5.338 -.639 C -5.416 -.459 -5.542 -.319 -5.716 -.22 C -5.89 -.12 -6.064 -.057 -6.24 -.029 L -6.24 .357 L -3.566 .357 L -3.566 -.053 C -3.684 -.057 -3.83 -.081 -4.006 -.126 C -4.182 -.171 -4.27 -.232 -4.27 -.31 C -4.27 -.322 -4.26 -.352 -4.24 -.401 C -4.221 -.45 -4.201 -.505 -4.182 -.567 C -4.022 -.966 -3.796 -1.521 -3.504 -2.236 C -3.212 -2.95 -2.975 -3.525 -2.791 -3.962 C -2.65 -3.627 -2.474 -3.209 -2.261 -2.71 C -2.048 -2.21 -1.818 -1.652 -1.572 -1.036 C -1.533 -.931 -1.496 -.832 -1.461 -.74 C -1.426 -.648 -1.408 -.556 -1.408 -.462 C -1.408 -.396 -1.44 -.336 -1.505 -.284 C -1.569 -.231 -1.646 -.186 -1.736 -.146 C -1.826 -.107 -1.914 -.078 -2 -.059 C -2.086 -.039 -2.156 -.025 -2.211 -.018 L -2.211 .357 L 0 .357 Z " fill="#231f20"></path>
<path transform="matrix(1,0,0,-1,411.0547,240.1048)" d="M 0 0 C 0 .218 -.019 .452 -.056 .701 C -.093 .95 -.152 1.159 -.234 1.326 C -.324 1.505 -.447 1.651 -.604 1.764 C -.76 1.877 -.961 1.934 -1.207 1.934 C -1.617 1.934 -1.958 1.763 -2.229 1.422 C -2.501 1.082 -2.648 .607 -2.672 0 Z M 1.295 -2.203 C 1.053 -2.664 .729 -3.031 .322 -3.305 C -.084 -3.578 -.551 -3.715 -1.078 -3.715 C -1.543 -3.715 -1.95 -3.633 -2.3 -3.469 C -2.649 -3.305 -2.938 -3.082 -3.164 -2.801 C -3.391 -2.52 -3.56 -2.191 -3.671 -1.816 C -3.782 -1.441 -3.838 -1.045 -3.838 -.627 C -3.838 -.252 -3.778 .116 -3.659 .478 C -3.54 .839 -3.365 1.164 -3.135 1.453 C -2.912 1.73 -2.636 1.954 -2.306 2.124 C -1.976 2.294 -1.605 2.379 -1.195 2.379 C -.773 2.379 -.412 2.313 -.111 2.18 C .189 2.047 .434 1.865 .621 1.635 C .801 1.416 .935 1.158 1.021 .861 C 1.11 .564 1.154 .242 1.154 -.105 L 1.154 -.492 L -2.672 -.492 C -2.672 -.872 -2.636 -1.217 -2.563 -1.526 C -2.491 -1.835 -2.377 -2.107 -2.221 -2.342 C -2.068 -2.569 -1.869 -2.749 -1.623 -2.879 C -1.377 -3.011 -1.084 -3.076 -.744 -3.076 C -.396 -3.076 -.097 -2.995 .155 -2.832 C .407 -2.669 .65 -2.375 .885 -1.951 Z " fill="#231f20"></path>
<path transform="matrix(1,0,0,-1,419.627,243.6673)" d="M 0 0 L -2.824 0 L -2.824 .387 C -2.734 .395 -2.636 .402 -2.528 .41 C -2.421 .418 -2.332 .434 -2.262 .457 C -2.152 .492 -2.071 .554 -2.019 .642 C -1.966 .729 -1.939 .844 -1.939 .984 L -1.939 3.955 C -1.939 4.365 -2.036 4.682 -2.229 4.904 C -2.424 5.127 -2.66 5.238 -2.938 5.238 C -3.146 5.238 -3.335 5.206 -3.508 5.142 C -3.68 5.077 -3.833 4.998 -3.966 4.904 C -4.095 4.814 -4.197 4.718 -4.274 4.614 C -4.351 4.511 -4.406 4.428 -4.441 4.365 L -4.441 1.043 C -4.441 .91 -4.414 .801 -4.359 .715 C -4.305 .629 -4.223 .563 -4.113 .516 C -4.031 .477 -3.942 .447 -3.847 .428 C -3.751 .408 -3.652 .395 -3.551 .387 L -3.551 0 L -6.381 0 L -6.381 .387 C -6.291 .395 -6.198 .402 -6.103 .41 C -6.007 .418 -5.924 .434 -5.854 .457 C -5.744 .492 -5.663 .553 -5.61 .641 C -5.558 .729 -5.531 .843 -5.531 .983 L -5.531 4.548 C -5.531 4.681 -5.56 4.802 -5.616 4.914 C -5.673 5.025 -5.752 5.115 -5.854 5.186 C -5.928 5.232 -6.016 5.267 -6.117 5.288 C -6.219 5.31 -6.328 5.324 -6.445 5.332 L -6.445 5.719 L -4.523 5.848 L -4.441 5.766 L -4.441 4.951 L -4.412 4.951 C -4.318 5.045 -4.201 5.157 -4.061 5.288 C -3.92 5.419 -3.787 5.525 -3.662 5.607 C -3.518 5.701 -3.346 5.779 -3.146 5.842 C -2.947 5.904 -2.723 5.936 -2.473 5.936 C -1.918 5.936 -1.507 5.763 -1.239 5.417 C -.972 5.071 -.838 4.611 -.838 4.037 L -.838 1.031 C -.838 .895 -.814 .784 -.768 .7 C -.721 .616 -.641 .551 -.527 .504 C -.434 .465 -.353 .438 -.284 .422 C -.216 .406 -.121 .395 0 .387 Z " fill="#231f20"></path>
<path transform="matrix(1,0,0,-1,422.4043,235.5404)" d="M 0 0 C 0 -.223 -.073 -.417 -.22 -.583 C -.366 -.749 -.547 -.832 -.762 -.832 C -.961 -.832 -1.134 -.753 -1.28 -.595 C -1.427 -.437 -1.5 -.256 -1.5 -.053 C -1.5 .162 -1.427 .35 -1.28 .51 C -1.134 .67 -.961 .75 -.762 .75 C -.539 .75 -.356 .675 -.214 .524 C -.071 .374 0 .199 0 0 M .732 -8.127 L -2.057 -8.127 L -2.057 -7.74 C -1.967 -7.732 -1.874 -7.725 -1.778 -7.717 C -1.683 -7.709 -1.6 -7.693 -1.529 -7.67 C -1.42 -7.635 -1.339 -7.574 -1.286 -7.486 C -1.233 -7.398 -1.207 -7.284 -1.207 -7.144 L -1.207 -3.579 C -1.207 -3.454 -1.235 -3.34 -1.292 -3.237 C -1.349 -3.133 -1.428 -3.046 -1.529 -2.977 C -1.604 -2.93 -1.711 -2.89 -1.852 -2.856 C -1.992 -2.823 -2.121 -2.803 -2.238 -2.795 L -2.238 -2.408 L -.199 -2.279 L -.117 -2.361 L -.117 -7.072 C -.117 -7.209 -.091 -7.322 -.039 -7.412 C .014 -7.502 .096 -7.568 .209 -7.611 C .294 -7.646 .377 -7.675 .459 -7.696 C .54 -7.718 .632 -7.732 .732 -7.74 Z " fill="#231f20"></path>
<path transform="matrix(1,0,0,-1,426.043,235.53449)" d="M 0 0 C 0 -.223 -.073 -.417 -.22 -.583 C -.366 -.749 -.547 -.832 -.762 -.832 C -.961 -.832 -1.134 -.753 -1.28 -.595 C -1.427 -.437 -1.5 -.256 -1.5 -.053 C -1.5 .162 -1.427 .35 -1.28 .51 C -1.134 .67 -.961 .75 -.762 .75 C -.539 .75 -.356 .675 -.214 .524 C -.071 .374 0 .199 0 0 M -.088 -7.781 C -.088 -8.211 -.15 -8.614 -.275 -8.991 C -.4 -9.368 -.566 -9.68 -.773 -9.926 C -.996 -10.188 -1.247 -10.388 -1.526 -10.526 C -1.806 -10.665 -2.113 -10.734 -2.449 -10.734 C -2.797 -10.734 -3.059 -10.665 -3.234 -10.526 C -3.41 -10.388 -3.498 -10.225 -3.498 -10.037 C -3.498 -9.869 -3.451 -9.722 -3.357 -9.595 C -3.264 -9.468 -3.127 -9.404 -2.947 -9.404 C -2.826 -9.404 -2.719 -9.43 -2.625 -9.48 C -2.531 -9.531 -2.449 -9.598 -2.379 -9.68 C -2.316 -9.75 -2.253 -9.837 -2.188 -9.94 C -2.124 -10.044 -2.063 -10.145 -2.004 -10.242 C -1.707 -10.242 -1.495 -10.063 -1.368 -9.703 C -1.241 -9.344 -1.178 -8.768 -1.178 -7.975 L -1.178 -3.627 C -1.178 -3.502 -1.208 -3.382 -1.269 -3.267 C -1.329 -3.151 -1.408 -3.059 -1.506 -2.988 C -1.568 -2.945 -1.718 -2.902 -1.954 -2.859 C -2.19 -2.816 -2.369 -2.789 -2.49 -2.777 L -2.49 -2.414 L -.17 -2.285 L -.088 -2.367 Z " fill="#231f20"></path>
<path transform="matrix(1,0,0,-1,431.1934,240.1048)" d="M 0 0 C 0 .218 -.019 .452 -.056 .701 C -.093 .95 -.152 1.159 -.234 1.326 C -.324 1.505 -.447 1.651 -.604 1.764 C -.76 1.877 -.961 1.934 -1.207 1.934 C -1.617 1.934 -1.958 1.763 -2.229 1.422 C -2.501 1.082 -2.648 .607 -2.672 0 Z M 1.295 -2.203 C 1.053 -2.664 .729 -3.031 .322 -3.305 C -.084 -3.578 -.551 -3.715 -1.078 -3.715 C -1.543 -3.715 -1.95 -3.633 -2.3 -3.469 C -2.649 -3.305 -2.938 -3.082 -3.164 -2.801 C -3.391 -2.52 -3.56 -2.191 -3.671 -1.816 C -3.782 -1.441 -3.838 -1.045 -3.838 -.627 C -3.838 -.252 -3.778 .116 -3.659 .478 C -3.54 .839 -3.365 1.164 -3.135 1.453 C -2.912 1.73 -2.636 1.954 -2.306 2.124 C -1.976 2.294 -1.605 2.379 -1.195 2.379 C -.773 2.379 -.412 2.313 -.111 2.18 C .189 2.047 .434 1.865 .621 1.635 C .801 1.416 .935 1.158 1.022 .861 C 1.11 .564 1.154 .242 1.154 -.105 L 1.154 -.492 L -2.672 -.492 C -2.672 -.872 -2.636 -1.217 -2.563 -1.526 C -2.491 -1.835 -2.377 -2.107 -2.221 -2.342 C -2.068 -2.569 -1.869 -2.749 -1.623 -2.879 C -1.377 -3.011 -1.084 -3.076 -.744 -3.076 C -.396 -3.076 -.097 -2.995 .155 -2.832 C .407 -2.669 .65 -2.375 .885 -1.951 Z " fill="#231f20"></path>
<path transform="matrix(1,0,0,-1,0,841.89)" d="M 283.591 563.007 L 311.938 563.007 L 311.938 534.661 L 283.591 534.661 Z " fill="#ed1d24"></path>
<path transform="matrix(1,0,0,-1,254.437,273.3651)" d="M 0 0 C .878 .016 1.642 -.223 2.203 -.745 C 4.014 -2.434 3.016 -6.446 -.024 -9.707 C -3.065 -12.969 -6.998 -14.244 -8.81 -12.555 C -10.62 -10.866 -9.623 -6.853 -6.583 -3.592 C -6.527 -3.534 -6.408 -3.375 -6.351 -3.317 C 6.65 10.177 27.199 17.897 49.613 15.935 C 73.477 13.847 93.399 1.214 103.346 -15.904 C 93.016 -3.156 72.837 6.548 48.975 8.636 C 30.081 10.289 12.579 6.85 0 0 " fill="#58595b"></path>
</g>
</g>
</g>
</svg>