<svg id="Page_1" data-name="Page 1" xmlns="http://www.w3.org/2000/svg" viewBox="0 0 374.91 456.59"><defs><style>.cls-1{fill:#fff;}.cls-1,.cls-5{stroke:#010201;stroke-miterlimit:2.41;stroke-width:0.22px;}.cls-1,.cls-2,.cls-3,.cls-4,.cls-5{fill-rule:evenodd;}.cls-2{fill:#abc653;}.cls-3{fill:#236b50;}.cls-4{fill:#1ba1c8;}.cls-5{fill:#1f1e21;}</style></defs><title>Znak Občina Dolenjske Toplice</title><polygon class="cls-1" points="346.06 305.18 345.16 312.8 343.92 320.37 342.35 327.84 340.45 335.2 338.24 342.45 335.72 349.57 332.9 356.56 329.79 363.39 326.4 370.07 322.72 376.58 318.78 382.91 314.58 389.06 310.12 395 305.42 400.74 300.48 406.25 295.31 411.54 289.91 416.59 284.3 421.39 278.49 425.93 272.47 430.19 266.25 434.18 259.86 437.88 253.28 441.27 246.54 444.35 239.63 447.11 232.58 449.53 225.37 451.61 218.03 453.33 210.56 454.69 202.97 455.68 195.26 456.27 187.46 456.48 179.51 456.28 171.69 455.7 163.99 454.75 156.43 453.43 149.02 451.75 141.76 449.73 134.66 447.37 127.72 444.68 120.95 441.66 114.37 438.34 107.98 434.71 101.78 430.79 95.78 426.59 89.99 422.11 84.42 417.37 79.06 412.38 73.94 407.13 69.06 401.65 64.41 395.94 60.02 390.02 55.88 383.88 52 377.54 48.4 371.01 45.07 364.3 42.02 357.41 39.27 350.36 36.81 343.16 34.65 335.81 32.81 328.32 31.28 320.7 30.07 312.97 29.21 305.17 0.12 0.11 374.79 0.11 346.06 305.18 346.06 305.18"/><path class="cls-2" d="M212.88,166.19c85.28,0,154.84,69.56,154.84,154.84,0,5-.25,9.84-.71,14.67C356,412.53,292,475.86,212.88,475.86c-1.33,0-2.65,0-4-.05h-.14A154,154,0,0,1,174.46,471l-.83-.22-2.46-.67c-.82-.23-1.65-.47-2.47-.72l-.63-.19C107.61,450.67,64.55,395.29,58.24,328.64c-.12-2.52-.19-5.06-.19-7.61,0-85.28,69.55-154.84,154.83-154.84Z" transform="translate(-25.43 -22.92)"/><path class="cls-3" d="M195.66,54.69l17.22-27.18,17.23,27.18Zm52.17,28H177.92L193,58.82h39.67l15.12,23.86Zm-87.66,28L175.3,86.81h75.14l15.12,23.86Zm-2.61,4.13H268.18l15.13,23.86H142.44l15.12-23.86Zm181.08,116-.15-.14a154.57,154.57,0,0,0-251.3.12l52.63-88h146.1l52.72,88Z" transform="translate(-25.43 -22.92)"/><path class="cls-4" d="M104.44,260.06l3,2.07,3,2.37,3,2.66,3,2.9q1.5,1.54,3,3.11c1,1.09,2,2.19,3,3.29l2.92,3.44,2.87,3.56,2.81,3.64c.92,1.23,1.83,2.47,2.74,3.7l2.66,3.72,2.56,3.7,4.79,7.25c4.91,7.73,9.65,15.56,13.92,23.66,1.71,3.35,3.35,6.71,4.93,10.12s3,6.81,4.47,10.26c2.85,6.9,5.52,13.87,8.11,20.87q2.63,7.08,5.22,14.16,3.6,9.81,6.92,19.71,1.81,5.55,3.53,11.14t3.18,11.14c1,3.73,1.92,7.45,2.81,11.2l1.26,5.65c1.61,7.75,3,15.49,4,23.35-4.5-9.31-9.05-18.54-13.74-27.75q-3.88-7.55-7.91-15l-6.95-12.35q-2.88-4.9-5.86-9.76-2.88-4.62-5.88-9.19-4.5-6.78-9.24-13.41-4.09-5.64-8.35-11.15-3.57-4.56-7.26-9t-7.55-8.78q-3.87-4.32-7.84-8.52c-3.61-3.77-7.31-7.44-10.94-11.19q-3.75-3.9-7.38-7.9c-1.91-2.15-3.77-4.31-5.6-6.52q-2-2.49-4-5L91,307.69q-1.82-2.62-3.52-5.31l-2.18-3.66c-.67-1.25-1.34-2.5-2-3.75l-1.86-3.85-1.68-4a78.1,78.1,0,0,1-2.87-8.77c-.22-1-.4-2-.53-3a23.21,23.21,0,0,1-.1-2.64,19.25,19.25,0,0,1,.29-2.39,21.09,21.09,0,0,1,.66-2.32c.15-.39.3-.78.46-1.18a67.69,67.69,0,0,1,3.93-7.25l2.12-1.79L86,256.48l2.35-.8,2.43-.32,2.54.11L96,256l2.75,1,2.83,1.36,2.89,1.72Z" transform="translate(-25.43 -22.92)"/><path class="cls-4" d="M321.49,260.06l-2.94,2.07-3,2.37-3,2.66-3,2.9-3,3.11-2.95,3.29-2.92,3.44-2.88,3.56-2.81,3.64c-.91,1.23-1.82,2.47-2.74,3.7l-2.65,3.72c-.86,1.23-1.71,2.47-2.56,3.7l-4.8,7.25c-4.9,7.73-9.65,15.56-13.91,23.66-1.72,3.35-3.35,6.71-4.93,10.12s-3,6.81-4.48,10.26c-2.85,6.9-5.51,13.87-8.11,20.87l-5.21,14.16q-3.61,9.81-6.92,19.71-1.83,5.55-3.53,11.14T232,426.53c-1,3.73-1.92,7.45-2.81,11.2L228,443.38c-1.62,7.75-3,15.49-4,23.35,4.51-9.31,9-18.54,13.75-27.75q3.87-7.55,7.91-15l6.94-12.35q2.88-4.9,5.86-9.76,2.89-4.62,5.88-9.19,4.51-6.78,9.25-13.41,4.1-5.64,8.34-11.15,3.58-4.56,7.27-9t7.54-8.78q3.87-4.32,7.85-8.52c3.61-3.77,7.31-7.44,10.94-11.19q3.75-3.9,7.38-7.9c1.9-2.15,3.77-4.31,5.6-6.52,1.35-1.66,2.66-3.34,4-5l2.51-3.45q1.81-2.62,3.52-5.31l2.17-3.66c.68-1.25,1.35-2.5,2-3.75l1.86-3.85,1.68-4a76.17,76.17,0,0,0,2.88-8.77c.22-1,.4-2,.53-3a23.21,23.21,0,0,0,.09-2.64,19.25,19.25,0,0,0-.29-2.39,21,21,0,0,0-.65-2.32c-.15-.39-.31-.78-.46-1.18a66,66,0,0,0-3.94-7.25l-2.11-1.79-2.27-1.31-2.35-.8-2.43-.32-2.54.11L330,256l-2.75,1-2.83,1.36-2.9,1.72Z" transform="translate(-25.43 -22.92)"/><path class="cls-4" d="M203.83,379.48q-4.25-38.85-8.28-77.73-1.55-15.44-3-30.85l-1.66-18.4-1.27-16-.47-7-.35-6.16-.21-5.29-.08-4.35.14-4.69.41-4.36.65-4,.88-3.72,1.09-3.39,1.28-3.08,1.45-2.77,1.59-2.45,1.72-2.14,1.83-1.84,1.92-1.54,2-1.24,2.05-1,2.1-.67,2.12-.38,2.14-.11,2.14.18,2.13.45,2.1.73,2.07,1,2,1.3,1.93,1.59,1.85,1.88,1.73,2.18,1.61,2.46,1.46,2.77,1.29,3.06,1.1,3.36.9,3.65.66,4,.43,4.24.16,4.57,0,8.24-.11,8.28-.2,8.28-.28,8.3-.37,8.31-.44,8.31-.51,8.32-.57,8.34-1.34,16.68-1.54,16.7q-1.26,12.54-2.62,25.07l-1.9,16.72c-3.27,27.81-6.75,55.6-9.91,83.43-.92,8.33-1.84,16.67-2.66,25-.57-5.71-1.18-11.42-1.78-17.12q-3.63-33.58-7.35-67.15Z" transform="translate(-25.43 -22.92)"/><path class="cls-4" d="M163.58,297.37c-1.84-3.48-3.94-6.83-6-10.16l-2.67-4.12C149.46,275,143.8,267,138.44,258.84q-2.62-4.06-5.12-8.21l-2.4-4.19c-1.16-2.12-2.27-4.25-3.35-6.41l-2-4.38-1.84-4.49-.85-2.27-.81-2.5-.61-2.39-.43-2.29-.25-2.17-.08-2.07.07-1.95.22-1.82.36-1.71.48-1.59.6-1.47.71-1.34.81-1.21.9-1.09,1-1,1.06-.84,1.12-.7,1.19-.58,1.25-.44,1.29-.31,1.35-.17,1.38,0,1.41.12,1.44.27,1.46.42,1.47.59,1.47.75,1.47.92,1.46,1.1,1.44,1.27,1.41,1.47,1.37,1.65,1.33,1.85,2.37,3.72,2.25,3.87,2.15,4,2,4.14,1.94,4.25,1.84,4.37,1.74,4.47,1.65,4.57,1.56,4.66,1.48,4.73,1.4,4.8,1.32,4.86,1.25,4.91,1.17,5,1.12,5L177.5,289l1.84,10.08q1.28,7.52,2.44,15c.74,4.91,1.45,9.81,2.15,14.73l2.28,16.48c-5.11-11.78-10.58-23.41-16.17-35-2.12-4.35-4.24-8.7-6.46-13Z" transform="translate(-25.43 -22.92)"/><path class="cls-4" d="M262.35,297.37c1.84-3.48,3.94-6.83,6-10.16l2.67-4.12c5.41-8.13,11.07-16.09,16.44-24.25q2.63-4.06,5.12-8.21l2.4-4.19c1.15-2.12,2.27-4.25,3.35-6.41l2-4.38,1.85-4.49.84-2.27.81-2.5.62-2.39.42-2.29.25-2.17.09-2.07-.08-1.95L305,213.7l-.35-1.71-.49-1.59-.6-1.47-.7-1.34-.81-1.21-.9-1.09-1-1-1.06-.84-1.13-.7-1.19-.58-1.24-.44-1.3-.31-1.34-.17-1.38,0-1.41.12-1.44.27-1.46.42-1.47.59-1.48.75-1.47.92-1.46,1.1-1.44,1.27-1.4,1.47-1.38,1.65-1.32,1.85-2.37,3.72-2.26,3.87-2.15,4-2,4.14L265,231.65,263.18,236l-1.74,4.47-1.65,4.57-1.57,4.66-1.47,4.73-1.4,4.8L254,264.11,252.78,269l-1.18,5-1.11,5L248.43,289l-1.84,10.08q-1.26,7.52-2.44,15c-.73,4.91-1.44,9.81-2.14,14.73q-1.15,8.24-2.28,16.48c5.11-11.78,10.58-23.41,16.16-35,2.12-4.35,4.24-8.7,6.46-13Z" transform="translate(-25.43 -22.92)"/><path class="cls-5" d="M371.49,328.1l-.9,7.62-1.24,7.57-1.58,7.47-1.89,7.36-2.21,7.25-2.52,7.12-2.82,7-3.11,6.83-3.4,6.68-3.67,6.51-3.94,6.33L340,412l-4.45,5.94-4.7,5.74-4.94,5.51-5.18,5.29-5.39,5.05-5.61,4.8-5.82,4.53-6,4.27-6.21,4-6.4,3.69-6.57,3.4L272,467.27,265.06,470,258,472.45l-7.2,2.08-7.34,1.72L236,477.61l-7.6,1-7.7.6-7.8.2-7.95-.2-7.83-.58-7.69-.95-7.56-1.32-7.41-1.68-7.27-2-7.1-2.36-6.94-2.7-6.76-3-6.58-3.32-6.4-3.63-6.2-3.92-6-4.2L115.41,445l-5.57-4.74-5.35-5-5.12-5.25-4.89-5.48-4.64-5.71-4.4-5.92L81.3,406.8l-3.87-6.34-3.61-6.53-3.33-6.71-3-6.89-2.76-7.05-2.46-7.2-2.15-7.35-1.85-7.49-1.53-7.62-1.2-7.73-.87-7.8L25.54,23H400.22L371.49,328.1Zm-3.52-.37c-7.57,80.37-73.23,148.13-155.09,148.13-83.53,0-147.34-65.54-154.73-148.13L29.44,26.56H396.33L368,327.73Z" transform="translate(-25.43 -22.92)"/></svg>